# Blender 4.0.2
# www.blender.org
mtllib poster.mtl
o Sketchfab_Model
v -0.009403 0.921058 0.001015
v -0.011054 0.917818 0.001015
v 0.000000 0.914226 0.001015
v -0.006832 0.923629 0.001015
v -0.003592 0.925280 0.001015
v -0.000000 0.925849 0.001015
v 0.003592 0.925280 0.001015
v 0.006832 0.923629 0.001015
v 0.009403 0.921058 0.001015
v 0.011054 0.917818 0.001015
v 0.011623 0.914226 0.001015
v 0.011054 0.910635 0.001015
v 0.009403 0.907394 0.001015
v 0.006832 0.904823 0.001015
v 0.003592 0.903172 0.001015
v 0.000000 0.902604 0.001015
v -0.003592 0.903172 0.001015
v -0.006832 0.904823 0.001015
v -0.009403 0.907394 0.001015
v -0.011054 0.910635 0.001015
v -0.011623 0.914226 0.001015
v -0.001278 0.914642 -0.011445
v -0.001087 0.915016 -0.011445
v 0.000000 0.914226 -0.013529
v -0.000790 0.915314 -0.011445
v -0.000415 0.915505 -0.011445
v 0.000000 0.915570 -0.011445
v 0.000415 0.915505 -0.011445
v 0.000790 0.915314 -0.011445
v 0.001087 0.915016 -0.011445
v 0.001278 0.914642 -0.011445
v 0.001344 0.914226 -0.011445
v 0.001278 0.913811 -0.011445
v 0.001087 0.913436 -0.011445
v 0.000790 0.913139 -0.011445
v 0.000415 0.912948 -0.011445
v 0.000000 0.912882 -0.011445
v -0.000415 0.912948 -0.011445
v -0.000790 0.913139 -0.011445
v -0.001087 0.913436 -0.011445
v -0.001278 0.913811 -0.011445
v -0.001344 0.914226 -0.011445
v -0.305000 0.142305 0.012732
v -0.305000 0.051305 0.013015
v -0.244000 0.051305 -0.006261
v -0.244000 0.142305 -0.003256
v -0.183000 0.051305 -0.007492
v -0.183000 0.142305 -0.006824
v -0.122000 0.051305 -0.003354
v -0.122000 0.142305 -0.006824
v -0.061000 0.051305 -0.003331
v -0.061000 0.142305 -0.006824
v 0.000000 0.051305 -0.011266
v 0.000000 0.142305 -0.012840
v 0.061000 0.051305 -0.009780
v 0.061000 0.142305 -0.006824
v 0.122000 0.051305 -0.011019
v 0.122000 0.142305 -0.006824
v 0.183000 0.051305 -0.006824
v 0.183000 0.142305 -0.015912
v 0.244000 0.054543 0.006305
v 0.244000 0.142305 -0.006824
v 0.305000 0.054543 0.020505
v 0.305000 0.142305 0.006066
v -0.305000 0.233305 -0.000392
v -0.244000 0.233305 -0.006824
v -0.183000 0.233305 -0.006824
v -0.122000 0.233305 -0.006824
v -0.061000 0.233305 -0.004910
v 0.000000 0.233305 -0.011833
v 0.061000 0.233305 -0.006824
v 0.122000 0.233305 -0.006824
v 0.183000 0.233305 -0.006824
v 0.244000 0.233305 -0.006824
v 0.305000 0.233305 -0.002340
v -0.305000 0.324305 -0.004712
v -0.244000 0.324305 -0.006824
v -0.183000 0.324305 -0.011884
v -0.122000 0.324305 -0.003574
v -0.061000 0.324305 -0.006824
v 0.000000 0.324305 -0.013453
v 0.061000 0.324305 -0.006824
v 0.122000 0.324305 -0.014121
v 0.183000 0.324305 -0.006824
v 0.244000 0.324305 -0.006824
v 0.305000 0.324305 0.001559
v -0.305000 0.415305 -0.002641
v -0.244000 0.415305 -0.006824
v -0.183000 0.415305 -0.006824
v -0.122000 0.415305 -0.006824
v -0.061000 0.415305 -0.006824
v 0.000000 0.415305 -0.006824
v 0.061000 0.415305 -0.002362
v 0.122000 0.415305 0.000027
v 0.183000 0.415305 -0.001221
v 0.244000 0.415305 -0.006824
v 0.305000 0.415305 0.002921
v -0.305000 0.506305 -0.010970
v -0.244000 0.506305 -0.006824
v -0.183000 0.506305 -0.006824
v -0.122000 0.506305 0.000356
v -0.061000 0.506305 -0.006824
v 0.000000 0.506305 -0.006824
v 0.061000 0.506305 -0.006824
v 0.122000 0.506305 -0.006824
v 0.183000 0.506305 -0.012347
v 0.244000 0.506305 -0.006824
v 0.305000 0.506305 -0.007195
v -0.305000 0.597305 -0.013019
v -0.244000 0.597305 -0.006824
v -0.183000 0.597305 -0.006824
v -0.122000 0.597305 -0.006824
v -0.061000 0.597305 -0.006824
v 0.000000 0.597305 -0.006824
v 0.061000 0.597305 -0.006824
v 0.122000 0.597305 -0.017060
v 0.183000 0.597305 -0.006824
v 0.244000 0.597305 -0.006824
v 0.305000 0.597305 -0.010326
v -0.305000 0.688305 -0.003686
v -0.244000 0.688305 -0.006824
v -0.183000 0.688305 -0.006824
v -0.122000 0.688305 -0.006824
v -0.061000 0.688305 -0.006824
v 0.000000 0.688305 -0.006824
v 0.061000 0.688305 -0.001049
v 0.122000 0.688305 -0.006824
v 0.183000 0.688305 -0.006824
v 0.244000 0.688305 -0.006824
v 0.305000 0.688305 -0.009560
v -0.299944 0.779305 0.003524
v -0.244000 0.779305 -0.001335
v -0.183000 0.779305 -0.006824
v -0.122000 0.779305 -0.012369
v -0.061000 0.779305 -0.006824
v 0.000000 0.779305 -0.006824
v 0.061000 0.779305 -0.006824
v 0.122000 0.779305 -0.006824
v 0.183000 0.779305 -0.006824
v 0.244000 0.779778 -0.002380
v 0.305000 0.779305 0.005151
v -0.299944 0.870305 0.013447
v -0.244000 0.870305 -0.002466
v -0.183000 0.870305 -0.006824
v -0.122000 0.870305 -0.006824
v -0.061000 0.870305 -0.006824
v 0.000000 0.870305 -0.013918
v 0.061000 0.870305 -0.006824
v 0.122000 0.870305 -0.006824
v 0.183000 0.871119 -0.004187
v 0.244000 0.870641 0.001470
v 0.299789 0.869994 0.016168
v -0.286273 0.961305 0.023489
v -0.244000 0.952155 0.012089
v -0.183000 0.952155 -0.003269
v -0.122000 0.961305 -0.007309
v -0.061000 0.961305 -0.001570
v 0.000000 0.961305 -0.001979
v 0.061000 0.961305 0.001980
v 0.122000 0.961305 -0.004589
v 0.183000 0.961077 0.001969
v 0.232738 0.951156 0.023741
v 0.296292 0.945278 0.042042
v -0.002457 0.915025 -0.007581
v -0.002090 0.915745 -0.007581
v -0.001519 0.916317 -0.007581
v -0.000798 0.916683 -0.007581
v 0.000000 0.916809 -0.007581
v 0.000798 0.916683 -0.007581
v 0.001519 0.916317 -0.007581
v 0.002090 0.915745 -0.007581
v 0.002457 0.915025 -0.007581
v 0.002584 0.914226 -0.007581
v 0.002457 0.913428 -0.007581
v 0.002090 0.912708 -0.007581
v 0.001519 0.912136 -0.007581
v 0.000798 0.911769 -0.007581
v 0.000000 0.911642 -0.007581
v -0.000798 0.911769 -0.007581
v -0.001519 0.912136 -0.007581
v -0.002090 0.912708 -0.007581
v -0.002457 0.913428 -0.007581
v -0.002584 0.914226 -0.007581
v -0.011054 0.917818 -0.001519
v -0.009403 0.921058 -0.001519
v -0.006832 0.923629 -0.001519
v -0.003592 0.925280 -0.001519
v -0.000000 0.925849 -0.001519
v 0.003592 0.925280 -0.001519
v 0.006832 0.923629 -0.001519
v 0.009403 0.921058 -0.001519
v 0.011054 0.917818 -0.001519
v 0.011623 0.914226 -0.001519
v 0.011054 0.910635 -0.001519
v 0.009403 0.907394 -0.001519
v 0.006832 0.904823 -0.001519
v 0.003592 0.903172 -0.001519
v 0.000000 0.902604 -0.001519
v -0.003592 0.903172 -0.001519
v -0.006832 0.904823 -0.001519
v -0.009403 0.907394 -0.001519
v -0.011054 0.910635 -0.001519
v -0.011623 0.914226 -0.001519
v -0.011054 0.917818 -0.001519
v -0.009403 0.921058 -0.001519
v -0.006832 0.923629 -0.001519
v -0.003592 0.925280 -0.001519
v -0.000000 0.925849 -0.001519
v 0.003592 0.925280 -0.001519
v 0.006832 0.923629 -0.001519
v 0.009403 0.921058 -0.001519
v 0.011054 0.917818 -0.001519
v 0.011623 0.914226 -0.001519
v 0.011054 0.910635 -0.001519
v 0.009403 0.907394 -0.001519
v 0.006832 0.904823 -0.001519
v 0.003592 0.903172 -0.001519
v 0.000000 0.902604 -0.001519
v -0.003592 0.903172 -0.001519
v -0.006832 0.904823 -0.001519
v -0.009403 0.907394 -0.001519
v -0.011054 0.910635 -0.001519
v -0.011623 0.914226 0.001015
v -0.011623 0.914226 -0.001519
vn -0.5685 0.4130 0.7114
vn -0.6683 0.2172 0.7115
vn -0.0000 -0.0000 1.0000
vn -0.4130 0.5685 0.7115
vn -0.2172 0.6683 0.7115
vn -0.0000 0.7027 0.7115
vn 0.2172 0.6683 0.7115
vn 0.4130 0.5685 0.7115
vn 0.5685 0.4130 0.7114
vn 0.6683 0.2171 0.7115
vn 0.7027 -0.0000 0.7115
vn 0.6683 -0.2171 0.7115
vn 0.5685 -0.4130 0.7115
vn 0.4130 -0.5685 0.7115
vn 0.2171 -0.6683 0.7115
vn -0.0000 -0.7027 0.7115
vn -0.2171 -0.6683 0.7115
vn -0.4130 -0.5685 0.7115
vn -0.5685 -0.4130 0.7115
vn -0.6683 -0.2172 0.7115
vn -0.7027 -0.0000 0.7115
vn -0.8598 0.2793 -0.4275
vn -0.7313 0.5313 -0.4276
vn -0.0000 -0.0000 -1.0000
vn -0.5313 0.7314 -0.4276
vn -0.2793 0.8598 -0.4275
vn -0.0000 0.9040 -0.4275
vn 0.2793 0.8598 -0.4275
vn 0.5314 0.7313 -0.4275
vn 0.7313 0.5314 -0.4276
vn 0.8597 0.2793 -0.4276
vn 0.9040 -0.0000 -0.4275
vn 0.8597 -0.2793 -0.4276
vn 0.7313 -0.5314 -0.4276
vn 0.5314 -0.7313 -0.4275
vn 0.2794 -0.8597 -0.4276
vn -0.0000 -0.9040 -0.4276
vn -0.2794 -0.8597 -0.4276
vn -0.5314 -0.7313 -0.4275
vn -0.7313 -0.5314 -0.4275
vn -0.8597 -0.2794 -0.4276
vn -0.9040 -0.0000 -0.4275
vn 0.2294 0.0378 0.9726
vn 0.2777 -0.0144 0.9606
vn 0.1596 -0.0174 0.9870
vn 0.1324 0.0189 0.9910
vn 0.0027 -0.0024 1.0000
vn 0.0087 0.0037 1.0000
vn -0.0170 0.0268 0.9995
vn -0.0124 0.0108 0.9999
vn 0.0568 0.0330 0.9978
vn 0.0509 0.0099 0.9987
vn 0.0262 0.0101 0.9996
vn 0.0170 -0.0003 0.9999
vn -0.0256 -0.0234 0.9994
vn -0.0353 -0.0131 0.9993
vn 0.0251 -0.0062 0.9997
vn 0.0311 -0.0155 0.9994
vn -0.0710 0.0746 0.9947
vn -0.0355 0.0123 0.9993
vn -0.1976 0.1365 0.9707
vn -0.1532 0.0675 0.9859
vn -0.2142 0.1516 0.9649
vn -0.1779 0.0988 0.9791
vn 0.1252 0.0569 0.9905
vn 0.0803 0.0403 0.9960
vn 0.0007 0.0144 0.9999
vn -0.0182 -0.0020 0.9998
vn 0.0529 -0.0036 0.9986
vn 0.0078 0.0017 1.0000
vn -0.0314 0.0109 0.9994
vn 0.0186 0.0076 0.9998
vn -0.0149 -0.0149 0.9998
vn -0.0801 -0.0064 0.9968
vn -0.1229 0.0122 0.9923
vn 0.0607 0.0062 0.9981
vn 0.0511 0.0031 0.9987
vn -0.0133 -0.0000 0.9999
vn -0.0246 0.0026 0.9997
vn 0.0506 -0.0016 0.9987
vn -0.0053 -0.0173 0.9998
vn -0.0215 -0.0284 0.9994
vn -0.0024 -0.0325 0.9995
vn -0.0158 -0.0247 0.9996
vn -0.0516 -0.0149 0.9986
vn -0.1260 -0.0144 0.9919
vn 0.0259 0.0172 0.9995
vn 0.0233 0.0016 0.9997
vn -0.0213 -0.0193 0.9996
vn -0.0103 -0.0177 0.9998
vn 0.0349 -0.0145 0.9993
vn -0.0182 -0.0181 0.9997
vn -0.0267 -0.0190 0.9995
vn 0.0066 -0.0124 0.9999
vn 0.0132 0.0052 0.9999
vn -0.0444 0.0196 0.9988
vn -0.1119 0.0240 0.9934
vn -0.0423 0.0284 0.9987
vn -0.0211 0.0142 0.9997
vn -0.0294 -0.0000 0.9996
vn 0.0294 -0.0000 0.9996
vn -0.0091 0.0061 0.9999
vn 0.0069 0.0357 0.9993
vn 0.0202 0.0606 0.9980
vn -0.0074 0.0385 0.9992
vn -0.0224 0.0258 0.9994
vn -0.0224 0.0363 0.9991
vn -0.0548 -0.0200 0.9983
vn -0.0274 -0.0100 0.9996
vn -0.0147 0.0098 0.9998
vn -0.0000 0.0197 0.9998
vn 0.0147 0.0098 0.9998
vn -0.0118 -0.0079 0.9999
vn 0.0416 -0.0157 0.9990
vn 0.0229 -0.0153 0.9996
vn -0.0418 -0.0151 0.9990
vn 0.0094 -0.0043 0.9999
vn 0.0414 0.0065 0.9991
vn 0.0215 -0.0613 0.9979
vn 0.0220 -0.0382 0.9990
vn 0.0226 0.0001 0.9997
vn -0.0000 0.0152 0.9999
vn -0.0114 0.0076 0.9999
vn -0.0236 -0.0000 0.9997
vn 0.0207 -0.0139 0.9997
vn 0.0234 -0.0280 0.9993
vn -0.0300 -0.0201 0.9993
vn -0.0062 -0.0333 0.9994
vn 0.0058 -0.0544 0.9985
vn 0.1254 -0.0595 0.9903
vn 0.0941 -0.0357 0.9949
vn 0.0541 -0.0060 0.9985
vn -0.0082 0.0097 0.9999
vn -0.0118 0.0274 0.9996
vn -0.0145 0.0256 0.9996
vn 0.0064 0.0043 1.0000
vn -0.0351 -0.0185 0.9992
vn -0.0865 -0.0625 0.9943
vn -0.1136 -0.0952 0.9890
vn 0.2172 -0.1018 0.9708
vn 0.1688 -0.0767 0.9827
vn 0.0799 -0.0377 0.9961
vn -0.0031 -0.0262 0.9997
vn 0.0067 -0.0280 0.9996
vn -0.0072 -0.0324 0.9995
vn -0.0236 -0.0337 0.9992
vn -0.0107 -0.0303 0.9995
vn -0.1084 -0.0682 0.9918
vn -0.1994 -0.1522 0.9680
vn -0.2299 -0.1980 0.9529
vn 0.2511 -0.1558 0.9553
vn 0.2052 -0.1324 0.9697
vn 0.0968 -0.0633 0.9933
vn -0.0063 -0.0220 0.9997
vn 0.0071 -0.0601 0.9982
vn -0.0143 -0.1036 0.9945
vn -0.0181 -0.0869 0.9961
vn -0.0106 -0.0534 0.9985
vn -0.1646 -0.1115 0.9800
vn -0.2613 -0.2420 0.9344
vn -0.2692 -0.3075 0.9127
vn -0.7591 0.2466 -0.6024
vn -0.6458 0.4691 -0.6024
vn -0.4691 0.6458 -0.6024
vn -0.2465 0.7592 -0.6024
vn -0.0000 0.7982 -0.6024
vn 0.2465 0.7592 -0.6024
vn 0.4691 0.6458 -0.6024
vn 0.6458 0.4691 -0.6024
vn 0.7591 0.2466 -0.6024
vn 0.7982 -0.0000 -0.6024
vn 0.7591 -0.2467 -0.6024
vn 0.6457 -0.4692 -0.6024
vn 0.4692 -0.6457 -0.6024
vn 0.2467 -0.7591 -0.6024
vn -0.0000 -0.7982 -0.6024
vn -0.2467 -0.7591 -0.6024
vn -0.4692 -0.6457 -0.6024
vn -0.6457 -0.4692 -0.6024
vn -0.7591 -0.2467 -0.6024
vn -0.7982 -0.0000 -0.6024
vn -0.8381 0.2723 -0.4726
vn -0.7130 0.5179 -0.4726
vn -0.5180 0.7130 -0.4727
vn -0.2723 0.8381 -0.4726
vn -0.0000 0.8813 -0.4726
vn 0.2723 0.8381 -0.4726
vn 0.5180 0.7130 -0.4726
vn 0.7129 0.5180 -0.4726
vn 0.8381 0.2723 -0.4726
vn 0.8812 -0.0000 -0.4727
vn 0.8381 -0.2723 -0.4726
vn 0.7129 -0.5180 -0.4726
vn 0.5180 -0.7129 -0.4726
vn 0.2723 -0.8381 -0.4726
vn -0.0000 -0.8813 -0.4726
vn -0.2723 -0.8381 -0.4726
vn -0.5180 -0.7129 -0.4726
vn -0.7129 -0.5180 -0.4727
vn -0.8381 -0.2723 -0.4727
vn -0.8813 -0.0000 -0.4726
vn -0.7130 0.5180 -0.4726
vn 0.5180 0.7129 -0.4727
vn 0.7130 0.5180 -0.4726
vn 0.8813 -0.0000 -0.4726
vn -0.7130 -0.5180 -0.4726
vn -0.8381 -0.2723 -0.4726
vt 0.998566 0.002289
vt 0.999148 0.003430
vt 0.995256 0.004694
vt 0.997661 0.001383
vt 0.996520 0.000802
vt 0.995256 0.000602
vt 0.993991 0.000802
vt 0.992850 0.001383
vt 0.991945 0.002289
vt 0.991364 0.003430
vt 0.991163 0.004694
vt 0.991364 0.005959
vt 0.991945 0.007100
vt 0.992850 0.008005
vt 0.993991 0.008586
vt 0.995256 0.008786
vt 0.996520 0.008586
vt 0.997661 0.008005
vt 0.998566 0.007100
vt 0.999148 0.005959
vt 0.999348 0.004694
vt 0.995706 0.004548
vt 0.995638 0.004416
vt 0.995534 0.004311
vt 0.995402 0.004244
vt 0.995256 0.004221
vt 0.995109 0.004244
vt 0.994977 0.004311
vt 0.994873 0.004416
vt 0.994806 0.004548
vt 0.994782 0.004694
vt 0.994806 0.004840
vt 0.994873 0.004972
vt 0.994977 0.005077
vt 0.995109 0.005144
vt 0.995256 0.005167
vt 0.995402 0.005144
vt 0.995534 0.005077
vt 0.995638 0.004972
vt 0.995706 0.004840
vt 0.995729 0.004694
vt 0.001875 0.899141
vt 0.001875 0.998125
vt 0.100859 0.998125
vt 0.100859 0.899141
vt 0.199843 0.998125
vt 0.199843 0.899141
vt 0.298828 0.998125
vt 0.298828 0.899141
vt 0.397812 0.998125
vt 0.397812 0.899141
vt 0.496797 0.998125
vt 0.496797 0.899141
vt 0.595781 0.998125
vt 0.595781 0.899141
vt 0.694765 0.998125
vt 0.694765 0.899141
vt 0.793750 0.998125
vt 0.793750 0.899141
vt 0.892734 0.998125
vt 0.892734 0.899141
vt 0.991719 0.998125
vt 0.991719 0.899141
vt 0.001875 0.800157
vt 0.100859 0.800157
vt 0.199843 0.800157
vt 0.298828 0.800157
vt 0.397812 0.800157
vt 0.496797 0.800157
vt 0.595781 0.800157
vt 0.694765 0.800157
vt 0.793750 0.800157
vt 0.892734 0.800157
vt 0.991719 0.800157
vt 0.001875 0.701172
vt 0.100859 0.701172
vt 0.199843 0.701172
vt 0.298828 0.701172
vt 0.397812 0.701172
vt 0.496797 0.701172
vt 0.595781 0.701172
vt 0.694765 0.701172
vt 0.793750 0.701172
vt 0.892734 0.701172
vt 0.991719 0.701172
vt 0.001875 0.602188
vt 0.100859 0.602188
vt 0.199843 0.602188
vt 0.298828 0.602188
vt 0.397812 0.602188
vt 0.496797 0.602188
vt 0.595781 0.602188
vt 0.694765 0.602188
vt 0.793750 0.602188
vt 0.892734 0.602188
vt 0.991719 0.602188
vt 0.001875 0.503203
vt 0.100859 0.503203
vt 0.199843 0.503203
vt 0.298828 0.503203
vt 0.397812 0.503203
vt 0.496797 0.503203
vt 0.595781 0.503203
vt 0.694765 0.503203
vt 0.793750 0.503203
vt 0.892734 0.503203
vt 0.991719 0.503203
vt 0.001875 0.404219
vt 0.100859 0.404219
vt 0.199843 0.404219
vt 0.298828 0.404219
vt 0.397812 0.404219
vt 0.496797 0.404219
vt 0.595781 0.404219
vt 0.694765 0.404219
vt 0.793750 0.404219
vt 0.892734 0.404219
vt 0.991719 0.404219
vt 0.001875 0.305235
vt 0.100859 0.305235
vt 0.199843 0.305235
vt 0.298828 0.305235
vt 0.397812 0.305235
vt 0.496797 0.305235
vt 0.595781 0.305235
vt 0.694765 0.305235
vt 0.793750 0.305235
vt 0.892734 0.305235
vt 0.991719 0.305235
vt 0.001875 0.206250
vt 0.100859 0.206250
vt 0.199843 0.206250
vt 0.298828 0.206250
vt 0.397812 0.206250
vt 0.496797 0.206250
vt 0.595781 0.206250
vt 0.694765 0.206250
vt 0.793750 0.206250
vt 0.892734 0.206250
vt 0.991719 0.206250
vt 0.001875 0.107266
vt 0.100859 0.107266
vt 0.199843 0.107266
vt 0.298828 0.107266
vt 0.397812 0.107266
vt 0.496797 0.107266
vt 0.595781 0.107266
vt 0.694765 0.107266
vt 0.793750 0.107266
vt 0.892734 0.107266
vt 0.991719 0.107266
vt 0.001875 0.008281
vt 0.100859 0.008281
vt 0.199843 0.008281
vt 0.298828 0.008281
vt 0.397812 0.008281
vt 0.496797 0.008281
vt 0.595781 0.008281
vt 0.694765 0.008281
vt 0.793750 0.008281
vt 0.892734 0.008281
vt 0.991719 0.008281
vt 0.996121 0.004413
vt 0.995992 0.004159
vt 0.995790 0.003958
vt 0.995537 0.003829
vt 0.995256 0.003785
vt 0.994974 0.003829
vt 0.994721 0.003958
vt 0.994520 0.004159
vt 0.994390 0.004413
vt 0.994346 0.004694
vt 0.994390 0.004975
vt 0.994520 0.005229
vt 0.994721 0.005430
vt 0.994974 0.005559
vt 0.995256 0.005604
vt 0.995537 0.005559
vt 0.995790 0.005430
vt 0.995992 0.005229
vt 0.996121 0.004975
vt 0.996165 0.004694
s 1
usemtl Poster
f 1/1/1 2/2/2 3/3/3
f 4/4/4 1/1/1 3/3/3
f 5/5/5 4/4/4 3/3/3
f 6/6/6 5/5/5 3/3/3
f 7/7/7 6/6/6 3/3/3
f 8/8/8 7/7/7 3/3/3
f 9/9/9 8/8/8 3/3/3
f 10/10/10 9/9/9 3/3/3
f 11/11/11 10/10/10 3/3/3
f 12/12/12 11/11/11 3/3/3
f 13/13/13 12/12/12 3/3/3
f 14/14/14 13/13/13 3/3/3
f 15/15/15 14/14/14 3/3/3
f 16/16/16 15/15/15 3/3/3
f 17/17/17 16/16/16 3/3/3
f 18/18/18 17/17/17 3/3/3
f 19/19/19 18/18/18 3/3/3
f 20/20/20 19/19/19 3/3/3
f 21/21/21 20/20/20 3/3/3
f 2/2/2 21/21/21 3/3/3
f 22/22/22 23/23/23 24/3/24
f 23/23/23 25/24/25 24/3/24
f 25/24/25 26/25/26 24/3/24
f 26/25/26 27/26/27 24/3/24
f 27/26/27 28/27/28 24/3/24
f 28/27/28 29/28/29 24/3/24
f 29/28/29 30/29/30 24/3/24
f 30/29/30 31/30/31 24/3/24
f 31/30/31 32/31/32 24/3/24
f 32/31/32 33/32/33 24/3/24
f 33/32/33 34/33/34 24/3/24
f 34/33/34 35/34/35 24/3/24
f 35/34/35 36/35/36 24/3/24
f 36/35/36 37/36/37 24/3/24
f 37/36/37 38/37/38 24/3/24
f 38/37/38 39/38/39 24/3/24
f 39/38/39 40/39/40 24/3/24
f 40/39/40 41/40/41 24/3/24
f 41/40/41 42/41/42 24/3/24
f 42/41/42 22/22/22 24/3/24
f 43/42/43 44/43/44 45/44/45
f 43/42/43 45/44/45 46/45/46
f 46/45/46 45/44/45 47/46/47
f 46/45/46 47/46/47 48/47/48
f 48/47/48 47/46/47 49/48/49
f 48/47/48 49/48/49 50/49/50
f 50/49/50 49/48/49 51/50/51
f 50/49/50 51/50/51 52/51/52
f 52/51/52 51/50/51 53/52/53
f 52/51/52 53/52/53 54/53/54
f 54/53/54 53/52/53 55/54/55
f 54/53/54 55/54/55 56/55/56
f 56/55/56 55/54/55 57/56/57
f 56/55/56 57/56/57 58/57/58
f 58/57/58 57/56/57 59/58/59
f 58/57/58 59/58/59 60/59/60
f 60/59/60 59/58/59 61/60/61
f 60/59/60 61/60/61 62/61/62
f 62/61/62 61/60/61 63/62/63
f 62/61/62 63/62/63 64/63/64
f 65/64/65 43/42/43 46/45/46
f 65/64/65 46/45/46 66/65/66
f 66/65/66 46/45/46 48/47/48
f 66/65/66 48/47/48 67/66/67
f 67/66/67 48/47/48 50/49/50
f 67/66/67 50/49/50 68/67/68
f 68/67/68 50/49/50 52/51/52
f 68/67/68 52/51/52 69/68/69
f 69/68/69 52/51/52 54/53/54
f 69/68/69 54/53/54 70/69/70
f 70/69/70 54/53/54 56/55/56
f 70/69/70 56/55/56 71/70/71
f 71/70/71 56/55/56 58/57/58
f 71/70/71 58/57/58 72/71/72
f 72/71/72 58/57/58 60/59/60
f 72/71/72 60/59/60 73/72/73
f 73/72/73 60/59/60 62/61/62
f 73/72/73 62/61/62 74/73/74
f 74/73/74 62/61/62 64/63/64
f 74/73/74 64/63/64 75/74/75
f 76/75/76 65/64/65 66/65/66
f 76/75/76 66/65/66 77/76/77
f 77/76/77 66/65/66 67/66/67
f 77/76/77 67/66/67 78/77/78
f 78/77/78 67/66/67 68/67/68
f 78/77/78 68/67/68 79/78/79
f 79/78/79 68/67/68 69/68/69
f 79/78/79 69/68/69 80/79/80
f 80/79/80 69/68/69 70/69/70
f 80/79/80 70/69/70 81/80/81
f 81/80/81 70/69/70 71/70/71
f 81/80/81 71/70/71 82/81/82
f 82/81/82 71/70/71 72/71/72
f 82/81/82 72/71/72 83/82/83
f 83/82/83 72/71/72 73/72/73
f 83/82/83 73/72/73 84/83/84
f 84/83/84 73/72/73 74/73/74
f 84/83/84 74/73/74 85/84/85
f 85/84/85 74/73/74 75/74/75
f 85/84/85 75/74/75 86/85/86
f 87/86/87 76/75/76 77/76/77
f 87/86/87 77/76/77 88/87/88
f 88/87/88 77/76/77 78/77/78
f 88/87/88 78/77/78 89/88/89
f 89/88/89 78/77/78 79/78/79
f 89/88/89 79/78/79 90/89/90
f 90/89/90 79/78/79 80/79/80
f 90/89/90 80/79/80 91/90/91
f 91/90/91 80/79/80 81/80/81
f 91/90/91 81/80/81 92/91/92
f 92/91/92 81/80/81 82/81/82
f 92/91/92 82/81/82 93/92/93
f 93/92/93 82/81/82 83/82/83
f 93/92/93 83/82/83 94/93/94
f 94/93/94 83/82/83 84/83/84
f 94/93/94 84/83/84 95/94/95
f 95/94/95 84/83/84 85/84/85
f 95/94/95 85/84/85 96/95/96
f 96/95/96 85/84/85 86/85/86
f 96/95/96 86/85/86 97/96/97
f 98/97/98 87/86/87 88/87/88
f 98/97/98 88/87/88 99/98/99
f 99/98/99 88/87/88 89/88/89
f 99/98/99 89/88/89 100/99/100
f 100/99/100 89/88/89 90/89/90
f 100/99/100 90/89/90 101/100/3
f 101/100/3 90/89/90 91/90/91
f 101/100/3 91/90/91 102/101/101
f 102/101/101 91/90/91 92/91/92
f 102/101/101 92/91/92 103/102/102
f 103/102/102 92/91/92 93/92/93
f 103/102/102 93/92/93 104/103/103
f 104/103/103 93/92/93 94/93/94
f 104/103/103 94/93/94 105/104/104
f 105/104/104 94/93/94 95/94/95
f 105/104/104 95/94/95 106/105/105
f 106/105/105 95/94/95 96/95/96
f 106/105/105 96/95/96 107/106/106
f 107/106/106 96/95/96 97/96/97
f 107/106/106 97/96/97 108/107/107
f 109/108/108 98/97/98 99/98/99
f 109/108/108 99/98/99 110/109/109
f 110/109/109 99/98/99 100/99/100
f 110/109/109 100/99/100 111/110/110
f 111/110/110 100/99/100 101/100/3
f 111/110/110 101/100/3 112/111/111
f 112/111/111 101/100/3 102/101/101
f 112/111/111 102/101/101 113/112/112
f 113/112/112 102/101/101 103/102/102
f 113/112/112 103/102/102 114/113/113
f 114/113/113 103/102/102 104/103/103
f 114/113/113 104/103/103 115/114/114
f 115/114/114 104/103/103 105/104/104
f 115/114/114 105/104/104 116/115/115
f 116/115/115 105/104/104 106/105/105
f 116/115/115 106/105/105 117/116/116
f 117/116/116 106/105/105 107/106/106
f 117/116/116 107/106/106 118/117/117
f 118/117/117 107/106/106 108/107/107
f 118/117/117 108/107/107 119/118/118
f 120/119/119 109/108/108 110/109/109
f 120/119/119 110/109/109 121/120/120
f 121/120/120 110/109/109 111/110/110
f 121/120/120 111/110/110 122/121/121
f 122/121/121 111/110/110 112/111/111
f 122/121/121 112/111/111 123/122/122
f 123/122/122 112/111/111 113/112/112
f 123/122/122 113/112/112 124/123/123
f 124/123/123 113/112/112 114/113/113
f 124/123/123 114/113/113 125/124/124
f 125/124/124 114/113/113 115/114/114
f 125/124/124 115/114/114 126/125/125
f 126/125/125 115/114/114 116/115/115
f 126/125/125 116/115/115 127/126/126
f 127/126/126 116/115/115 117/116/116
f 127/126/126 117/116/116 128/127/127
f 128/127/127 117/116/116 118/117/117
f 128/127/127 118/117/117 129/128/128
f 129/128/128 118/117/117 119/118/118
f 129/128/128 119/118/118 130/129/129
f 131/130/130 120/119/119 121/120/120
f 131/130/130 121/120/120 132/131/131
f 132/131/131 121/120/120 122/121/121
f 132/131/131 122/121/121 133/132/132
f 133/132/132 122/121/121 123/122/122
f 133/132/132 123/122/122 134/133/3
f 134/133/3 123/122/122 124/123/123
f 134/133/3 124/123/123 135/134/133
f 135/134/133 124/123/123 125/124/124
f 135/134/133 125/124/124 136/135/134
f 136/135/134 125/124/124 126/125/125
f 136/135/134 126/125/125 137/136/135
f 137/136/135 126/125/125 127/126/126
f 137/136/135 127/126/126 138/137/136
f 138/137/136 127/126/126 128/127/127
f 138/137/136 128/127/127 139/138/137
f 139/138/137 128/127/127 129/128/128
f 139/138/137 129/128/128 140/139/138
f 140/139/138 129/128/128 130/129/129
f 140/139/138 130/129/129 141/140/139
f 142/141/140 131/130/130 132/131/131
f 142/141/140 132/131/131 143/142/141
f 143/142/141 132/131/131 133/132/132
f 143/142/141 133/132/132 144/143/142
f 144/143/142 133/132/132 134/133/3
f 144/143/142 134/133/3 145/144/143
f 145/144/143 134/133/3 135/134/133
f 145/144/143 135/134/133 146/145/144
f 146/145/144 135/134/133 136/135/134
f 146/145/144 136/135/134 147/146/145
f 147/146/145 136/135/134 137/136/135
f 147/146/145 137/136/135 148/147/146
f 148/147/146 137/136/135 138/137/136
f 148/147/146 138/137/136 149/148/147
f 149/148/147 138/137/136 139/138/137
f 149/148/147 139/138/137 150/149/148
f 150/149/148 139/138/137 140/139/138
f 150/149/148 140/139/138 151/150/149
f 151/150/149 140/139/138 141/140/139
f 151/150/149 141/140/139 152/151/150
f 153/152/151 142/141/140 143/142/141
f 153/152/151 143/142/141 154/153/152
f 154/153/152 143/142/141 144/143/142
f 154/153/152 144/143/142 155/154/153
f 155/154/153 144/143/142 145/144/143
f 155/154/153 145/144/143 156/155/154
f 156/155/154 145/144/143 146/145/144
f 156/155/154 146/145/144 157/156/155
f 157/156/155 146/145/144 147/146/145
f 157/156/155 147/146/145 158/157/156
f 158/157/156 147/146/145 148/147/146
f 158/157/156 148/147/146 159/158/157
f 159/158/157 148/147/146 149/148/147
f 159/158/157 149/148/147 160/159/158
f 160/159/158 149/148/147 150/149/148
f 160/159/158 150/149/148 161/160/159
f 161/160/159 150/149/148 151/150/149
f 161/160/159 151/150/149 162/161/160
f 162/161/160 151/150/149 152/151/150
f 162/161/160 152/151/150 163/162/161
f 164/163/162 165/164/163 23/23/23
f 164/163/162 23/23/23 22/22/22
f 165/164/163 166/165/164 25/24/25
f 165/164/163 25/24/25 23/23/23
f 166/165/164 167/166/165 26/25/26
f 166/165/164 26/25/26 25/24/25
f 26/25/26 167/166/165 168/167/166
f 26/25/26 168/167/166 27/26/27
f 27/26/27 168/167/166 169/168/167
f 27/26/27 169/168/167 28/27/28
f 29/28/29 28/27/28 169/168/167
f 29/28/29 169/168/167 170/169/168
f 30/29/30 29/28/29 170/169/168
f 30/29/30 170/169/168 171/170/169
f 31/30/31 30/29/30 171/170/169
f 31/30/31 171/170/169 172/171/170
f 32/31/32 31/30/31 172/171/170
f 32/31/32 172/171/170 173/172/171
f 33/32/33 32/31/32 173/172/171
f 33/32/33 173/172/171 174/173/172
f 34/33/34 33/32/33 174/173/172
f 34/33/34 174/173/172 175/174/173
f 35/34/35 34/33/34 175/174/173
f 35/34/35 175/174/173 176/175/174
f 36/35/36 35/34/35 176/175/174
f 36/35/36 176/175/174 177/176/175
f 178/177/176 37/36/37 36/35/36
f 178/177/176 36/35/36 177/176/175
f 179/178/177 38/37/38 37/36/37
f 179/178/177 37/36/37 178/177/176
f 179/178/177 180/179/178 39/38/39
f 179/178/177 39/38/39 38/37/38
f 180/179/178 181/180/179 40/39/40
f 180/179/178 40/39/40 39/38/39
f 181/180/179 182/181/180 41/40/41
f 181/180/179 41/40/41 40/39/40
f 182/181/180 183/182/181 42/41/42
f 182/181/180 42/41/42 41/40/41
f 183/182/181 164/163/162 22/22/22
f 183/182/181 22/22/22 42/41/42
f 184/2/182 185/1/183 165/164/163
f 184/2/182 165/164/163 164/163/162
f 185/1/183 186/4/184 166/165/164
f 185/1/183 166/165/164 165/164/163
f 186/4/184 187/5/185 167/166/165
f 186/4/184 167/166/165 166/165/164
f 167/166/165 187/5/185 188/6/186
f 167/166/165 188/6/186 168/167/166
f 168/167/166 188/6/186 189/7/187
f 168/167/166 189/7/187 169/168/167
f 170/169/168 169/168/167 189/7/187
f 170/169/168 189/7/187 190/8/188
f 171/170/169 170/169/168 190/8/188
f 171/170/169 190/8/188 191/9/189
f 172/171/170 171/170/169 191/9/189
f 172/171/170 191/9/189 192/10/190
f 173/172/171 172/171/170 192/10/190
f 173/172/171 192/10/190 193/11/191
f 174/173/172 173/172/171 193/11/191
f 174/173/172 193/11/191 194/12/192
f 175/174/173 174/173/172 194/12/192
f 175/174/173 194/12/192 195/13/193
f 176/175/174 175/174/173 195/13/193
f 176/175/174 195/13/193 196/14/194
f 177/176/175 176/175/174 196/14/194
f 177/176/175 196/14/194 197/15/195
f 198/16/196 178/177/176 177/176/175
f 198/16/196 177/176/175 197/15/195
f 199/17/197 179/178/177 178/177/176
f 199/17/197 178/177/176 198/16/196
f 199/17/197 200/18/198 180/179/178
f 199/17/197 180/179/178 179/178/177
f 200/18/198 201/19/199 181/180/179
f 200/18/198 181/180/179 180/179/178
f 201/19/199 202/20/200 182/181/180
f 201/19/199 182/181/180 181/180/179
f 202/20/200 203/21/201 183/182/181
f 202/20/200 183/182/181 182/181/180
f 203/21/201 184/2/182 164/163/162
f 203/21/201 164/163/162 183/182/181
f 204/2/182 2/2/2 1/1/1
f 204/2/182 1/1/1 205/1/202
f 205/1/202 1/1/1 4/4/4
f 205/1/202 4/4/4 206/4/184
f 206/4/184 4/4/4 5/5/5
f 206/4/184 5/5/5 207/5/185
f 207/5/185 5/5/5 6/6/6
f 207/5/185 6/6/6 208/6/186
f 208/6/186 6/6/6 7/7/7
f 208/6/186 7/7/7 209/7/187
f 209/7/187 7/7/7 8/8/8
f 209/7/187 8/8/8 210/8/203
f 210/8/203 8/8/8 9/9/9
f 210/8/203 9/9/9 211/9/204
f 211/9/204 9/9/9 10/10/10
f 211/9/204 10/10/10 212/10/190
f 212/10/190 10/10/10 11/11/11
f 212/10/190 11/11/11 213/11/205
f 12/12/12 214/12/192 213/11/205
f 12/12/12 213/11/205 11/11/11
f 13/13/13 215/13/193 214/12/192
f 13/13/13 214/12/192 12/12/12
f 14/14/14 216/14/194 215/13/193
f 14/14/14 215/13/193 13/13/13
f 15/15/15 217/15/195 216/14/194
f 15/15/15 216/14/194 14/14/14
f 16/16/16 218/16/196 217/15/195
f 16/16/16 217/15/195 15/15/15
f 17/17/17 219/17/197 218/16/196
f 17/17/17 218/16/196 16/16/16
f 18/18/18 220/18/198 219/17/197
f 18/18/18 219/17/197 17/17/17
f 19/19/19 221/19/206 220/18/198
f 19/19/19 220/18/198 18/18/18
f 20/20/20 222/20/207 221/19/206
f 20/20/20 221/19/206 19/19/19
f 223/21/21 203/21/201 222/20/207
f 223/21/21 222/20/207 20/20/20
f 224/21/201 223/21/21 2/2/2
f 224/21/201 2/2/2 204/2/182
